# xmcd
#
# Track frame offsets:
#	150
#	11285
#	21828
#	36875
#	48135
#	60860
#	69950
#	81683
#	95145
#	111935
#	124225
#	137658
#	149713
#	160230
#	170503
#
# Disc length: 2467 seconds
#
# Revision: 1
# Processed by: cddbd v1.5.2PL0 Copyright (c) Steve Scherf et al.
# Submitted via: audiograbber 1.83.01
#
DISCID=ce09a10f
DTITLE=John Williamson - JW's Family Album No. 2
DYEAR=1996
DGENRE=Country
TTITLE0=Kitchy Kitchy Koo
TTITLE1=The Timbercutter (Who Couldn't Complain)
TTITLE2=You Come Back To Tassie
TTITLE3=Santa Bring Me A Dinosaur
TTITLE4=Walkin' On The Beach
TTITLE5=Little Piss Piddle
TTITLE6=The Golden Kangaroo
TTITLE7=On Our Selection
TTITLE8=My Heart Will Find You
TTITLE9=Special Girl
TTITLE10=My Oath To Australia
TTITLE11=Big Bad Bushranger
TTITLE12=Country Football
TTITLE13=Little Brick
TTITLE14=Bananas
EXTD=
EXTT0=
EXTT1=
EXTT2=
EXTT3=
EXTT4=
EXTT5=
EXTT6=
EXTT7=
EXTT8=
EXTT9=
EXTT10=
EXTT11=
EXTT12=
EXTT13=
EXTT14=
PLAYORDER=
